{"accessors":[{"bufferView":0,"byteOffset":0,"componentType":5123,"count":132,"max":[71],"min":[0],"type":"SCALAR"},{"bufferView":1,"byteOffset":0,"componentType":5126,"count":72,"max":[0.9998202919960022,0.9997966289520264,1],"min":[-0.9998492002487183,-0.9997740387916565,-1],"type":"VEC3"},{"bufferView":1,"byteOffset":864,"componentType":5126,"count":72,"max":[61.822296142578125,268.9939270019531,21.5260009765625],"min":[20.265609741210938,226.84263610839844,0],"type":"VEC3"},{"bufferView":0,"byteOffset":264,"componentType":5123,"count":2,"max":[1],"min":[0],"type":"SCALAR"},{"bufferView":1,"byteOffset":1728,"componentType":5126,"count":2,"max":[132.62689208984375,259.4171142578125,0],"min":[131.42250061035156,259.33203125,0],"type":"VEC3"},{"bufferView":0,"byteOffset":268,"componentType":5123,"count":33,"max":[22],"min":[0],"type":"SCALAR"},{"bufferView":1,"byteOffset":1752,"componentType":5126,"count":23,"max":[0.9978012442588806,0.9981145262718201,0],"min":[-0.9979566335678101,-0.9975144863128662,-1],"type":"VEC3"},{"bufferView":1,"byteOffset":2028,"componentType":5126,"count":23,"max":[158.88311767578125,261.239501953125,17.656002044677734],"min":[132.6110382080078,252.5164031982422,0],"type":"VEC3"},{"bufferView":0,"byteOffset":334,"componentType":5123,"count":60,"max":[35],"min":[0],"type":"SCALAR"},{"bufferView":1,"byteOffset":2304,"componentType":5126,"count":36,"max":[0.9999861121177673,0.9999992847442627,1],"min":[-0.9999849200248718,-0.9999992251396179,-1],"type":"VEC3"},{"bufferView":1,"byteOffset":2736,"componentType":5126,"count":36,"max":[131.4484405517578,259.33203125,11.373000144958496],"min":[117.01264953613281,248.8813934326172,0],"type":"VEC3"},{"bufferView":0,"byteOffset":454,"componentType":5123,"count":84,"max":[47],"min":[0],"type":"SCALAR"},{"bufferView":1,"byteOffset":3168,"componentType":5126,"count":48,"max":[0.9999179840087891,0.9998480081558228,1],"min":[-0.999937891960144,-0.99985671043396,-1],"type":"VEC3"},{"bufferView":1,"byteOffset":3744,"componentType":5126,"count":48,"max":[164.20166015625,248.12954711914062,26.94700050354004],"min":[120.62296295166016,209.10931396484375,0],"type":"VEC3"},{"bufferView":0,"byteOffset":622,"componentType":5123,"count":36,"max":[23],"min":[0],"type":"SCALAR"},{"bufferView":1,"byteOffset":4320,"componentType":5126,"count":24,"max":[0.9994866251945496,0.999691367149353,1],"min":[-0.9991849064826965,-0.9994602203369141,-1],"type":"VEC3"},{"bufferView":1,"byteOffset":4608,"componentType":5126,"count":24,"max":[135.36767578125,202.02133178710938,9.323999404907227],"min":[126.6806411743164,195.10629272460938,0],"type":"VEC3"},{"bufferView":0,"byteOffset":694,"componentType":5123,"count":156,"max":[83],"min":[0],"type":"SCALAR"},{"bufferView":1,"byteOffset":4896,"componentType":5126,"count":84,"max":[0.9998642206192017,0.9999330043792725,1],"min":[-0.9998903870582581,-0.9999362826347351,-1],"type":"VEC3"},{"bufferView":1,"byteOffset":5904,"componentType":5126,"count":84,"max":[139.6727752685547,201.61000061035156,21.878000259399414],"min":[115.75906372070312,169.50686645507812,0],"type":"VEC3"},{"bufferView":0,"byteOffset":1006,"componentType":5123,"count":60,"max":[35],"min":[0],"type":"SCALAR"},{"bufferView":1,"byteOffset":6912,"componentType":5126,"count":36,"max":[0.9999462366104126,0.9999983906745911,1],"min":[-0.9999999403953552,-0.9999384880065918,-1],"type":"VEC3"},{"bufferView":1,"byteOffset":7344,"componentType":5126,"count":36,"max":[151.36366271972656,135.31961059570312,8.476000785827637],"min":[115.89542388916016,128.83462524414062,0],"type":"VEC3"},{"bufferView":0,"byteOffset":1126,"componentType":5123,"count":60,"max":[35],"min":[0],"type":"SCALAR"},{"bufferView":1,"byteOffset":7776,"componentType":5126,"count":36,"max":[0.9999086260795593,0.9998422265052795,1],"min":[-0.9999104142189026,-0.9998422861099243,-1],"type":"VEC3"},{"bufferView":1,"byteOffset":8208,"componentType":5126,"count":36,"max":[129.60984802246094,127.96538543701172,10.121000289916992],"min":[115.09066009521484,116.94684600830078,0],"type":"VEC3"},{"bufferView":0,"byteOffset":1246,"componentType":5123,"count":36,"max":[23],"min":[0],"type":"SCALAR"},{"bufferView":1,"byteOffset":8640,"componentType":5126,"count":24,"max":[0.9999492168426514,0.9999598860740662,1],"min":[-0.9999997019767761,-0.9999780058860779,-1],"type":"VEC3"},{"bufferView":1,"byteOffset":8928,"componentType":5126,"count":24,"max":[63.995819091796875,168.9336700439453,17.118000030517578],"min":[46.33759689331055,161.58184814453125,0],"type":"VEC3"},{"bufferView":0,"byteOffset":1318,"componentType":5123,"count":36,"max":[23],"min":[0],"type":"SCALAR"},{"bufferView":1,"byteOffset":9216,"componentType":5126,"count":24,"max":[0.9999445080757141,0.9996764063835144,1],"min":[-0.9990280270576477,-0.9998636841773987,-1],"type":"VEC3"},{"bufferView":1,"byteOffset":9504,"componentType":5126,"count":24,"max":[64.89227294921875,182.0360565185547,13.864999771118164],"min":[43.47488784790039,170.20506286621094,0],"type":"VEC3"},{"bufferView":0,"byteOffset":1390,"componentType":5123,"count":36,"max":[23],"min":[0],"type":"SCALAR"},{"bufferView":1,"byteOffset":9792,"componentType":5126,"count":24,"max":[0.9999402165412903,0.9997526407241821,1],"min":[-0.9999992847442627,-0.999759316444397,-1],"type":"VEC3"},{"bufferView":1,"byteOffset":10080,"componentType":5126,"count":24,"max":[64.98643493652344,194.91563415527344,21.03299903869629],"min":[41.489139556884766,182.50367736816406,0],"type":"VEC3"},{"bufferView":0,"byteOffset":1462,"componentType":5123,"count":102,"max":[59],"min":[0],"type":"SCALAR"},{"bufferView":1,"byteOffset":10368,"componentType":5126,"count":60,"max":[0.9999774098396301,0.9964132308959961,1],"min":[-0.999950110912323,-0.999795138835907,-1],"type":"VEC3"},{"bufferView":1,"byteOffset":11088,"componentType":5126,"count":60,"max":[64.815185546875,221.6344757080078,15.113999366760254],"min":[31.099376678466797,196.09365844726562,0],"type":"VEC3"}],"asset":{"generator":"COLLADA2GLTF","version":"2.0"},"bufferViews":[{"buffer":0,"byteLength":1666,"byteOffset":0,"target":34963},{"buffer":0,"byteLength":11808,"byteOffset":1668,"byteStride":12,"target":34962}],"buffers":[{"name":"output","byteLength":13476,"uri":"data:application/octet-stream;base64,"}],"cameras":[{"name":"skp_camera_Last_Saved_SketchUp_View","perspective":{"yfov":0.6108646988868713,"zfar":25.399999618530273,"znear":0.02539999969303608},"type":"perspective"}],"materials":[{"name":"ID4","pbrMetallicRoughness":{"baseColorFactor":[1,1,1,1],"metallicFactor":0,"roughnessFactor":1},"emissiveFactor":[0,0,0],"alphaMode":"OPAQUE","doubleSided":false},{"name":"ID79","pbrMetallicRoughness":{"baseColorFactor":[1,1,1,1],"metallicFactor":0,"roughnessFactor":1},"emissiveFactor":[0,0,0],"alphaMode":"OPAQUE","doubleSided":false},{"name":"ID4","pbrMetallicRoughness":{"baseColorFactor":[1,1,1,1],"metallicFactor":0,"roughnessFactor":1},"emissiveFactor":[0,0,0],"alphaMode":"OPAQUE","doubleSided":false},{"name":"ID4","pbrMetallicRoughness":{"baseColorFactor":[1,1,1,1],"metallicFactor":0,"roughnessFactor":1},"emissiveFactor":[0,0,0],"alphaMode":"OPAQUE","doubleSided":false},{"name":"ID4","pbrMetallicRoughness":{"baseColorFactor":[1,1,1,1],"metallicFactor":0,"roughnessFactor":1},"emissiveFactor":[0,0,0],"alphaMode":"OPAQUE","doubleSided":false},{"name":"ID4","pbrMetallicRoughness":{"baseColorFactor":[1,1,1,1],"metallicFactor":0,"roughnessFactor":1},"emissiveFactor":[0,0,0],"alphaMode":"OPAQUE","doubleSided":false},{"name":"ID4","pbrMetallicRoughness":{"baseColorFactor":[1,1,1,1],"metallicFactor":0,"roughnessFactor":1},"emissiveFactor":[0,0,0],"alphaMode":"OPAQUE","doubleSided":false},{"name":"ID4","pbrMetallicRoughness":{"baseColorFactor":[1,1,1,1],"metallicFactor":0,"roughnessFactor":1},"emissiveFactor":[0,0,0],"alphaMode":"OPAQUE","doubleSided":false},{"name":"ID4","pbrMetallicRoughness":{"baseColorFactor":[1,1,1,1],"metallicFactor":0,"roughnessFactor":1},"emissiveFactor":[0,0,0],"alphaMode":"OPAQUE","doubleSided":false},{"name":"ID4","pbrMetallicRoughness":{"baseColorFactor":[1,1,1,1],"metallicFactor":0,"roughnessFactor":1},"emissiveFactor":[0,0,0],"alphaMode":"OPAQUE","doubleSided":false},{"name":"ID4","pbrMetallicRoughness":{"baseColorFactor":[1,1,1,1],"metallicFactor":0,"roughnessFactor":1},"emissiveFactor":[0,0,0],"alphaMode":"OPAQUE","doubleSided":false},{"name":"ID4","pbrMetallicRoughness":{"baseColorFactor":[1,1,1,1],"metallicFactor":0,"roughnessFactor":1},"emissiveFactor":[0,0,0],"alphaMode":"OPAQUE","doubleSided":false},{"name":"ID4","pbrMetallicRoughness":{"baseColorFactor":[1,1,1,1],"metallicFactor":0,"roughnessFactor":1},"emissiveFactor":[0,0,0],"alphaMode":"OPAQUE","doubleSided":false}],"meshes":[{"name":"ID3","primitives":[{"attributes":{"NORMAL":1,"POSITION":2},"indices":0,"material":0,"mode":4}]},{"name":"ID77","primitives":[{"attributes":{"POSITION":4},"indices":3,"material":1,"mode":1}]},{"name":"ID71","primitives":[{"attributes":{"NORMAL":6,"POSITION":7},"indices":5,"material":2,"mode":4}]},{"name":"ID65","primitives":[{"attributes":{"NORMAL":9,"POSITION":10},"indices":8,"material":3,"mode":4}]},{"name":"ID59","primitives":[{"attributes":{"NORMAL":12,"POSITION":13},"indices":11,"material":4,"mode":4}]},{"name":"ID53","primitives":[{"attributes":{"NORMAL":15,"POSITION":16},"indices":14,"material":5,"mode":4}]},{"name":"ID47","primitives":[{"attributes":{"NORMAL":18,"POSITION":19},"indices":17,"material":6,"mode":4}]},{"name":"ID41","primitives":[{"attributes":{"NORMAL":21,"POSITION":22},"indices":20,"material":7,"mode":4}]},{"name":"ID35","primitives":[{"attributes":{"NORMAL":24,"POSITION":25},"indices":23,"material":8,"mode":4}]},{"name":"ID29","primitives":[{"attributes":{"NORMAL":27,"POSITION":28},"indices":26,"material":9,"mode":4}]},{"name":"ID23","primitives":[{"attributes":{"NORMAL":30,"POSITION":31},"indices":29,"material":10,"mode":4}]},{"name":"ID17","primitives":[{"attributes":{"NORMAL":33,"POSITION":34},"indices":32,"material":11,"mode":4}]},{"name":"ID11","primitives":[{"attributes":{"NORMAL":36,"POSITION":37},"indices":35,"material":12,"mode":4}]}],"nodes":[{"children":[1],"matrix":[1,0,0,0,0,0,-1,0,0,1,0,0,0,0,0,1],"name":"Z_UP"},{"children":[14,13,12,11,10,9,8,7,6,5,4,3,2],"mesh":0,"name":"SketchUp"},{"camera":0,"matrix":[0.07102859765291214,-0.9974743127822876,0,0,0.798336923122406,0.056848302483558655,0.599521815776825,0,-0.5980076193809509,-0.042583201080560684,0.8003584146499634,0,-717.9632568359375,-193.65956115722656,1062.1300048828125,1],"name":"skp_camera_Last_Saved_SketchUp_View"},{"mesh":1},{"mesh":2},{"mesh":3},{"mesh":4},{"mesh":5},{"mesh":6},{"mesh":7},{"mesh":8},{"mesh":9},{"mesh":10},{"mesh":11},{"mesh":12}],"scene":0,"scenes":[{"nodes":[0]}]}
