{"accessors":[{"bufferView":0,"byteOffset":0,"componentType":5123,"count":36,"max":[27],"min":[0],"type":"SCALAR"},{"bufferView":1,"byteOffset":0,"componentType":5126,"count":28,"max":[1,1,1],"min":[-1,-1,-1],"type":"VEC3"},{"bufferView":1,"byteOffset":336,"componentType":5126,"count":28,"max":[1,1,1],"min":[-1,-1.0000009536743164,-1],"type":"VEC3"}],"asset":{"generator":"COLLADA2GLTF","version":"2.0"},"bufferViews":[{"buffer":0,"byteLength":72,"byteOffset":0,"target":34963},{"buffer":0,"byteLength":672,"byteOffset":72,"byteStride":12,"target":34962}],"buffers":[{"name":"output","byteLength":744,"uri":"data:application/octet-stream;base64,"}],"cameras":[{"name":"Camera","perspective":{"yfov":0.48237475752830505,"zfar":100,"znear":0.10000000149011612},"type":"perspective"}],"materials":[{"emissiveFactor":[0,0,0],"name":"Material-effect","pbrMetallicRoughness":{"baseColorFactor":[0.6399999856948853,0.6399999856948853,0.6399999856948853,1],"metallicFactor":0,"roughnessFactor":1},"alphaMode":"OPAQUE","doubleSided":false}],"meshes":[{"name":"Cube","primitives":[{"attributes":{"NORMAL":1,"POSITION":2},"indices":0,"material":0,"mode":4}]}],"nodes":[{"children":[2,1],"matrix":[1,0,0,0,0,0,-1,0,0,1,0,0,0,0,0,1],"name":"Z_UP"},{"mesh":0,"name":"Cube"},{"camera":0,"matrix":[0.6858804821968079,0.7276338338851929,-0.010816779918968678,0,-0.31737011671066284,0.31246861815452576,0.8953431844711304,0,0.6548619270324707,-0.6106656193733215,0.4452454149723053,0,7.4811320304870605,-6.5076398849487305,5.34366512298584,1],"name":"Camera"}],"scene":0,"scenes":[{"nodes":[0]}]}
